<svg width="131" height="113" viewBox="0 0 131 113" fill="none" xmlns="http://www.w3.org/2000/svg">
<g id="Group 73">
<g id="Vector 50">
<path d="M92.5147 77.0501L93.1533 77.6192C92.8462 78.9786 92.111 81.7034 91.6273 81.728C91.0227 81.7588 88.99 81.2005 88.4859 80.8652C88.0827 80.5969 87.6567 79.7843 87.4941 79.4115L90.3665 79.8068L91.675 77.2132L92.0949 77.1316L89.0435 75.9412L87.5946 79.0454L87.0403 78.8932L88.6845 75.8012L89.0435 75.9412L92.0949 77.1316L92.5147 77.0501Z" fill="white"/>
<path d="M92.0949 77.1316L91.675 77.2132L90.3665 79.8068L87.4941 79.4115C87.6567 79.7843 88.0827 80.5969 88.4859 80.8652C88.99 81.2005 91.0227 81.7588 91.6273 81.728C92.111 81.7034 92.8462 78.9786 93.1533 77.6192L92.5147 77.0501L92.0949 77.1316ZM92.0949 77.1316L89.0435 75.9412M89.0435 75.9412L88.6845 75.8012L87.0403 78.8932L87.5946 79.0454L89.0435 75.9412Z" stroke="white" stroke-width="2" stroke-linecap="round" stroke-linejoin="round"/>
</g>
<path id="Vector 43" d="M39.5201 16.0336C35.477 14.5949 25.9542 13.7642 20.208 21.9505C15.3859 28.8204 17.0397 35.8238 19.14 39.7688M20.3542 41.6772C19.9613 41.1683 19.5425 40.5247 19.14 39.7688M19.14 39.7688C13.4489 42.3398 4.49037 50.2344 14.185 61.2443M17.5099 59.992C14.1406 61.8883 9.01555 67.6203 15.4699 75.3779C20.1894 80.769 27.9621 77.8904 31.2586 75.7772M27.1292 79.9584C28.0327 83.422 32.1848 91.0722 41.5655 93.9637C50.9462 96.8553 57.8896 90.9665 60.1887 87.6607M58.792 83.3398C61.0434 88.7546 67.9878 97.2337 78.6728 91.2701M81.3362 89.5319C80.4243 90.2118 79.5363 90.7881 78.6728 91.2701M78.6728 91.2701C81.1031 95.4454 88.5869 103.217 99.0798 100.902C112.196 98.0081 115.751 87.96 112.048 76.1154M115.543 77.8628C118.626 74.8379 122.998 67.5077 115.819 62.3862M112.209 63.9539C118.109 61.0463 127.46 52.2753 117.671 40.4519C113.126 35.5814 108.095 36.9687 106.147 38.2711M106.82 39.4402C106.555 35.8237 104.868 27.8796 100.244 25.0346C94.4639 21.4783 89.0724 21.5724 82.3057 25.226M82.8124 29.8932C81.0063 24.4098 74.6058 13.0316 63.4521 11.3855C49.5101 9.32785 44.0872 13.1537 37.5908 19.4409" stroke="white" stroke-width="2" stroke-linecap="round" stroke-linejoin="round"/>
<g id="Vector 44">
<path d="M44.1783 53.3395C42.3167 57.9467 38.8421 61.914 30.6774 59.0809C25.7096 57.357 25.1736 52.6231 26.1387 47.4003C24.4488 52.8421 25.4859 56.2768 28.528 59.6716C31.5701 63.0665 35.7021 63.2171 39.5474 61.5171C43.3927 59.8172 46.8822 52.901 47.85 42.1424C48.8178 31.3837 40.486 29.8826 39.865 30.6964C51.7078 33.1617 46.0399 48.7323 44.1783 53.3395Z" fill="white"/>
<path d="M38.5714 30.341C36.3317 30.054 31.299 31.0603 29.0857 37.3821C28.0024 40.4761 26.7598 44.0394 26.1387 47.4003M26.1387 47.4003C25.1736 52.6231 25.7096 57.357 30.6774 59.0809C38.8421 61.914 42.3167 57.9467 44.1783 53.3395C46.0399 48.7323 51.7078 33.1617 39.865 30.6964C40.486 29.8826 48.8178 31.3837 47.85 42.1424C46.8822 52.901 43.3927 59.8172 39.5474 61.5171C35.7021 63.2171 31.5701 63.0665 28.528 59.6716C25.4859 56.2768 24.4488 52.8421 26.1387 47.4003Z" stroke="white" stroke-width="2" stroke-linecap="round" stroke-linejoin="round"/>
</g>
<g id="Vector 45">
<path d="M33.204 42.6475C34.3591 36.2713 40.9273 37.6817 40.4748 39.3292C33.722 37.8681 33.7131 51.6463 33.5459 52.9785C32.0839 51.7895 32.0488 49.0237 33.204 42.6475Z" fill="white"/>
<path d="M34.47 53.2323C34.9179 53.2897 36.1326 52.8227 37.4077 50.4956C39.0016 47.5867 40.0222 40.9767 40.4748 39.3292M40.4748 39.3292C40.9273 37.6817 34.3591 36.2713 33.204 42.6475C32.0488 49.0237 32.0839 51.7895 33.5459 52.9785C33.7131 51.6463 33.722 37.8681 40.4748 39.3292Z" stroke="white" stroke-width="2" stroke-linecap="round" stroke-linejoin="round"/>
</g>
<g id="Vector 46">
<path d="M45.8305 53.2029L51.7758 34.3617C51.8635 34.4529 51.9711 34.5952 52.061 34.7705C52.8953 34.627 55.0713 34.5188 57.1007 35.2337C59.6374 36.1274 59.8072 39.1269 60.0599 40.3775C60.262 41.378 62.2593 38.8818 63.2326 37.5086C64.9963 37.5993 68.6413 37.9311 69.1119 38.5329C69.7002 39.2851 66.9284 38.5237 65.8197 38.2192C64.9327 37.9756 64.364 38.2131 64.1905 38.3623L59.2051 43.4895L57.1686 36.4335L52.061 34.7705C52.235 35.1099 52.3428 35.5732 52.1127 36.0292C51.7637 36.7208 47.7792 47.7665 45.8305 53.2029Z" fill="white"/>
<path d="M69.885 39.3358L70.9611 41.2063C71.3915 41.9545 68.5881 61.4223 67.1326 71.0627L61.0346 69.3878C59.7041 69.0223 59.6732 67.8326 59.824 67.2835L65.2834 68.3893C66.4481 59.3252 68.8279 41.0141 69.029 40.2818C69.2301 39.5496 69.6835 39.3461 69.885 39.3358Z" fill="white"/>
<path d="M61.4755 48.2473L61.123 51.5943C60.0477 52.8514 58.2411 54.8651 57.5661 55.245C56.8139 55.6684 56.0878 54.839 55.8188 54.3714L54.6585 52.084C52.9649 56.803 49.5375 66.3874 49.3766 66.9731C49.2157 67.5589 45.4236 66.4123 43.5476 65.7658L43.3112 63.7323L48.5519 64.1874L54.7565 47.3861L56.4901 53.3745L61.4755 48.2473Z" fill="white"/>
<path d="M42.5721 63.5293L45.8305 53.2029M45.8305 53.2029L51.7758 34.3617C51.8635 34.4529 51.9711 34.5952 52.061 34.7705M45.8305 53.2029C47.7792 47.7665 51.7637 36.7208 52.1127 36.0292C52.3428 35.5732 52.235 35.1099 52.061 34.7705M52.061 34.7705C52.8953 34.627 55.0713 34.5188 57.1007 35.2337C59.6374 36.1274 59.8072 39.1269 60.0599 40.3775C60.262 41.378 62.2593 38.8818 63.2326 37.5086C64.9963 37.5993 68.6413 37.9311 69.1119 38.5329C69.7002 39.2851 66.9284 38.5237 65.8197 38.2192C64.9327 37.9756 64.364 38.2131 64.1905 38.3623L59.2051 43.4895L57.1686 36.4335L52.061 34.7705ZM59.6216 65.8498L61.4755 48.2473L56.4901 53.3745L54.7565 47.3861L48.5519 64.1874L43.3112 63.7323L43.5476 65.7658C45.4236 66.4123 49.2157 67.5589 49.3766 66.9731C49.5375 66.3874 52.9649 56.803 54.6585 52.084L55.8188 54.3714C56.0878 54.839 56.8139 55.6684 57.5661 55.245C58.3183 54.8217 60.4758 52.3694 61.4604 51.1962M70.9611 41.2063L69.885 39.3358C69.6835 39.3461 69.2301 39.5496 69.029 40.2818C68.8279 41.0141 66.4481 59.3252 65.2834 68.3893L59.824 67.2835C59.6732 67.8326 59.7041 69.0223 61.0346 69.3878C62.3651 69.7532 65.6543 70.6567 67.1326 71.0627C68.5881 61.4223 71.3915 41.9545 70.9611 41.2063Z" stroke="white" stroke-width="2" stroke-linecap="round" stroke-linejoin="round"/>
</g>
<g id="Vector 47">
<path d="M88.5889 55.8907C89.416 53.3617 90.8381 47.8463 89.9099 46.0165C88.7496 43.7291 84.4982 40.3958 79.074 42.0558C74.7347 43.3838 71.6604 49.9942 70.6657 53.1333C71.6985 48.1672 76.0286 38.8177 85.0865 41.1481C87.8953 41.9196 90.1329 44.2403 90.9005 45.3042C91.5115 46.4564 92.3746 49.9221 90.9396 54.5678L89.8837 58.4119C88.6015 58.2566 85.9195 57.7956 85.4488 57.1938C84.9782 56.5921 83.9529 55.4048 83.4991 54.8864L83.7484 54.9356L84.3538 51.7745C83.7424 49.9004 81.6166 47.1247 78.0044 51.0149C73.4892 55.8775 71.7307 64.4504 75.2253 66.1977C78.021 67.5956 79.1666 65.8366 79.3899 64.7823C76.9975 63.6527 76.7907 62.4279 76.9864 61.9566L80.9851 64.0393C79.9864 66.718 79.3749 67.7312 75.6288 66.8992C71.8828 66.0671 71.4427 60.434 74.1767 54.0977C76.9107 47.7615 80.8566 45.6954 83.6461 47.8397C85.8776 49.555 84.9806 53.3514 84.2532 55.0352L88.5889 55.8907Z" fill="white"/>
<path d="M83.7484 54.9356L83.4991 54.8864C83.9529 55.4048 84.9782 56.5921 85.4488 57.1938C85.9195 57.7956 88.6015 58.2566 89.8837 58.4119C90.0681 57.7407 90.5374 56.0321 90.9396 54.5678C92.3746 49.9221 91.5115 46.4564 90.9005 45.3042C90.1329 44.2403 87.8953 41.9196 85.0865 41.1481C76.0286 38.8177 71.6985 48.1672 70.6657 53.1333C71.6604 49.9942 74.7347 43.3838 79.074 42.0558C84.4982 40.3958 88.7496 43.7291 89.9099 46.0165C90.8381 47.8463 89.416 53.3617 88.5889 55.8907L84.2532 55.0352M83.7484 54.9356L84.3538 51.7745C83.7424 49.9004 81.6166 47.1247 78.0044 51.0149C73.4892 55.8775 71.7307 64.4504 75.2253 66.1977C78.021 67.5956 79.1666 65.8366 79.3899 64.7823C76.9975 63.6527 76.7907 62.4279 76.9864 61.9566L80.9851 64.0393C79.9864 66.718 79.3749 67.7312 75.6288 66.8991C71.8828 66.0671 71.4427 60.434 74.1767 54.0977C76.9107 47.7615 80.8566 45.6954 83.6461 47.8397C85.8776 49.555 84.9806 53.3514 84.2532 55.0352M83.7484 54.9356L84.2532 55.0352M77.2881 60.8583L78.6469 58.0817C80.5903 59.2061 84.8568 61.5198 86.3753 61.7794" stroke="white" stroke-width="2" stroke-linecap="round" stroke-linejoin="round"/>
</g>
<path id="Vector 48" d="M88.2908 63.4871C87.7397 63.1783 87.333 62.6334 87.1984 62.3996C85.2186 65.99 82.9548 72.0617 77.5306 73.7217C73.1912 75.0497 69.7296 70.5291 68.5413 68.1028C68.5807 68.4417 68.6092 69.3026 68.408 70.0348C69.4841 71.9053 70.711 73.2266 74.6758 74.7094C78.6406 76.1921 82.418 73.2923 84.1301 71.4002C85.8422 69.508 88.9797 63.8732 88.2908 63.4871Z" fill="white" stroke="white" stroke-width="2" stroke-linecap="round" stroke-linejoin="round"/>
<g id="Vector 49">
<path d="M92.8299 70.8366L89.0336 70.1876C89.5553 71.9059 89.0009 71.7536 92.2266 73.0333C94.8071 74.0571 95.2385 72.6794 95.1316 71.8626L103.232 51.0541C103.018 50.1424 102.471 48.3252 101.987 48.3498C101.503 48.3745 95.6808 63.3513 92.8299 70.8366Z" fill="white"/>
<path d="M100.963 48.4622C101.231 48.2078 101.584 47.6484 100.845 47.4454C100.084 47.2363 97.5669 46.5451 95.5861 46.3312C96.4056 46.8204 99.5121 47.9557 100.963 48.4622Z" fill="white"/>
<path d="M88.7306 69.12C90.2046 62.3065 93.4042 48.1973 94.4109 46.2688C94.7631 46.2615 95.1624 46.2854 95.5861 46.3312M95.5861 46.3312C97.5669 46.5451 100.084 47.2363 100.845 47.4454C101.584 47.6484 101.231 48.2078 100.963 48.4622C99.5121 47.9557 96.4056 46.8204 95.5861 46.3312ZM89.0336 70.1876L92.8299 70.8366C95.6808 63.3513 101.503 48.3745 101.987 48.3498C102.471 48.3252 103.018 50.1424 103.232 51.0541L95.1316 71.8626C95.2385 72.6794 94.8071 74.0571 92.2266 73.0333C89.0009 71.7536 89.5553 71.9059 89.0336 70.1876Z" stroke="white" stroke-width="2" stroke-linecap="round" stroke-linejoin="round"/>
</g>
</g>
</svg>
