<svg width="152" height="114" viewBox="0 0 152 114" fill="none" xmlns="http://www.w3.org/2000/svg">
<g id="Group 72">
<g id="Vector 40">
<path d="M41.6487 59.385L38.6699 46.5277L40.1593 47.7924C40.8686 50.6027 42.287 56.4342 42.287 57.2773C42.287 58.1204 41.8615 59.0337 41.6487 59.385Z" stroke="#E6FB04" stroke-width="2" stroke-linecap="round" stroke-linejoin="round"/>
<path d="M46.7552 51.7971C45.9041 46.7384 41.2941 45.7548 39.0955 45.8953C48.0318 46.5276 46.3297 52.851 46.3297 55.1695C46.3297 57.0244 43.9183 58.7527 42.7126 59.385C44.4147 58.9635 47.6063 56.8557 46.7552 51.7971Z" stroke="#E6FB04" stroke-width="2" stroke-linecap="round" stroke-linejoin="round"/>
</g>
<path id="Vector 41" d="M42.7129 67.8162L43.564 72.0317M43.7767 67.6054C44.7697 67.5351 46.7555 67.8583 46.7555 69.7132C46.7555 71.568 45.4789 72.0317 44.8406 72.0317L43.564 67.6054" stroke="#E6FB04" stroke-width="2" stroke-linecap="round" stroke-linejoin="round"/>
<path id="Vector 42" d="M61.437 58.7527C61.2951 57.9096 61.0966 55.6754 61.437 53.4833C61.7774 51.2912 62.1461 45.263 62.2879 42.5229C63.3518 45.7549 65.5646 52.6402 65.905 54.3264C66.2455 56.0126 66.3306 57.9799 66.3306 58.7527M65.2667 59.1743H62.2879L61.8624 56.4342C62.2879 53.5536 63.0539 47.4551 62.7135 46.1061" stroke="#E6FB04" stroke-width="2" stroke-linecap="round" stroke-linejoin="round"/>
<path id="Vector 35" d="M34.6279 27.7686L26.5426 1L39.3088 27.7686C39.8053 24.7475 42.5004 19.464 49.3091 22.4992C49.3091 17.8621 48.2452 11.5388 50.1601 7.74484C53.3943 13.9838 55.4794 20.1806 56.1177 22.4992C57.3234 17.3 63.437 7.07036 78.2459 7.74484C88.9695 7.74484 93.92 16.1759 95.0548 20.3914C98.4591 15.8949 107.268 10.3585 115.268 24.1854M116.97 25.0285C121.509 20.3914 131.141 9.93691 133.354 5.21552C133.354 8.41932 132.644 10.3444 132.29 10.9065L122.077 28.8225C127.538 29.8763 136.673 34.5977 129.524 45.0522M130.375 46.5277C132.077 46.2466 136.375 45.8532 139.949 46.5277C134.673 49.2256 130.8 50.7432 129.524 51.1647C133.424 53.7643 139.056 61.83 130.375 73.2962C138.034 76.8373 147.184 83.3432 150.801 86.1536C144.914 84.3971 131.822 80.1254 126.545 77.0902M126.545 78.5657C127.538 83.1325 126.077 92.519 112.289 93.5308C102.927 93.5308 98.3173 86.2239 97.1825 82.5704L93.7782 97.9571L89.7355 83.4135C88.1043 87.067 83.0545 92.4769 75.9054 84.8889M74.6288 86.1536C71.7918 91.2825 62.7562 99.559 49.3091 91.6338C49.3091 96.6924 49.3091 107.793 49.3091 112.711L43.1387 88.2614C40.8692 91.704 34.3726 96.9032 26.5426 90.1583C21.9467 84.7625 24.6277 79.198 26.5426 77.0902M24.202 77.0902C18.6699 75.2635 9.98888 68.7856 19.521 57.488C11.5207 59.3429 3.84671 60.5092 1.00977 60.8604L18.6697 51.1647C15.1945 48.6354 8.96739 41.2583 11.8611 31.9841C14.7548 22.71 26.4004 24.0449 31.8615 25.8716" stroke="#E6FB04" stroke-width="2" stroke-linecap="round" stroke-linejoin="round"/>
<g id="Vector 36">
<path d="M51.6496 51.7973C49.9475 37.9704 36.7557 38.8697 30.3726 41.0478C31.9329 39.8534 36.628 37.8861 42.926 39.5723C54.8412 43.7878 54.4157 52.4297 53.5646 57.2775C52.8837 61.1558 50.8695 63.2495 49.9475 63.8116C50.8695 64.4439 52.6709 66.9732 52.5007 72.0318C52.288 78.3551 43.1388 79.1982 41.8622 79.1982C40.5856 79.1982 40.3728 77.7228 40.7983 77.0905C57.6072 73.7181 49.0964 64.2331 48.6709 63.8116C48.3304 63.4743 48.2453 63.2495 48.2453 63.1792C49.5929 61.8443 52.1603 57.6991 51.6496 51.7973Z" fill="#E6FB04"/>
<path d="M29.5215 41.8909L39.3089 76.6689M30.3726 41.0478C36.7557 38.8697 49.9475 37.9704 51.6496 51.7973C52.1603 57.6991 49.5929 61.8443 48.2453 63.1792C48.2453 63.2495 48.3304 63.4743 48.6709 63.8116C49.0964 64.2331 57.6072 73.7181 40.7983 77.0905C40.3728 77.7228 40.5856 79.1982 41.8622 79.1982C43.1388 79.1982 52.288 78.3551 52.5007 72.0318C52.6709 66.9732 50.8695 64.4439 49.9475 63.8116C50.8695 63.2495 52.8837 61.1558 53.5646 57.2775C54.4157 52.4297 54.8412 43.7878 42.926 39.5723C36.628 37.8861 31.9329 39.8534 30.3726 41.0478Z" stroke="#E6FB04" stroke-width="2" stroke-linecap="round" stroke-linejoin="round"/>
</g>
<g id="Vector 37">
<path d="M66.7564 36.4102L76.5438 68.8697L69.5224 69.7128L72.9267 71.1882L79.3098 70.3451L67.6074 35.5671L66.7564 36.4102Z" fill="#E6FB04"/>
<path d="M62.0754 35.5671C63.2669 35.5671 65.4088 35.286 66.3308 35.1455C65.9904 36.1572 61.0825 36.4102 58.6711 36.4102C59.3094 36.1291 60.8839 35.5671 62.0754 35.5671Z" fill="#E6FB04"/>
<path d="M61.2243 70.3451C59.6924 69.1648 56.6143 69.8533 55.2667 70.3451C55.054 70.6964 54.8412 71.4412 55.6923 71.6098C56.5434 71.7784 60.4442 71.5395 62.2882 71.399L62.9265 66.3404L66.3308 65.0757L68.6713 68.8697L66.7564 64.4434C65.3946 65.2865 63.0683 65.0757 62.0754 64.865C61.9336 65.9188 61.5648 68.4903 61.2243 70.3451Z" fill="#E6FB04"/>
<path d="M57.82 37.464L53.7773 71.1882M76.5438 68.8697L66.7564 36.4102L67.6074 35.5671L79.3098 70.3451L72.9267 71.1882L69.5224 69.7128L76.5438 68.8697ZM66.3308 35.1455C65.4088 35.286 63.2669 35.5671 62.0754 35.5671C60.8839 35.5671 59.3094 36.1291 58.6711 36.4102C61.0825 36.4102 65.9904 36.1572 66.3308 35.1455ZM55.2667 70.3451C56.6143 69.8533 59.6924 69.1648 61.2243 70.3451C61.5648 68.4903 61.9336 65.9188 62.0754 64.865C63.0683 65.0757 65.3946 65.2865 66.7564 64.4434L68.6713 68.8697L66.3308 65.0757L62.9265 66.3404L62.2882 71.399C60.4442 71.5395 56.5434 71.7784 55.6923 71.6098C54.8412 71.4412 55.054 70.6964 55.2667 70.3451Z" stroke="#E6FB04" stroke-width="2" stroke-linecap="round" stroke-linejoin="round"/>
</g>
<g id="Vector 38">
<path d="M93.9908 71.1886L88.6715 70.5562L90.1609 72.2424L95.0546 72.664C95.9057 62.4765 97.6504 41.8485 97.8207 40.8368C97.9909 39.8251 97.3242 38.5885 96.9696 38.0967L93.9908 71.1886Z" fill="#E6FB04"/>
<path d="M82.7139 54.748L88.246 69.2916L83.1395 57.2773C82.643 61.4929 81.7352 69.9661 82.0756 70.1347C82.4161 70.3033 82.643 71.1886 82.7139 71.6101H79.3096L80.3735 70.5562C80.5862 70.4157 81.1394 69.9661 81.6501 69.2916C81.6501 67.774 82.3593 58.9635 82.7139 54.748Z" fill="#E6FB04"/>
<path d="M82.7139 36.4105C82.3735 36.5791 79.0259 35.9187 77.3947 35.5674C77.5649 35.5674 81.2955 36.1295 83.1395 36.4105C83.7778 36.6213 85.1395 37.1693 85.48 37.6751C86.1608 37.6751 87.6077 41.1881 88.246 42.9446C87.9623 43.7174 87.2672 45.5582 86.7566 46.7385C85.7484 46.2327 83.6414 39.6424 82.7139 36.4105Z" fill="#E6FB04"/>
<path d="M95.693 37.6751H92.7142H89.5226L87.8204 48.6355M75.9053 55.3803V35.5674M88.6715 70.5562L93.9908 71.1886L96.9696 38.0967C97.3242 38.5885 97.9909 39.8251 97.8207 40.8368C97.6504 41.8485 95.9057 62.4765 95.0546 72.664L90.1609 72.2424L88.6715 70.5562ZM88.246 69.2916L82.7139 54.748C82.3593 58.9635 81.6501 67.774 81.6501 69.2916C81.1394 69.9661 80.5862 70.4157 80.3735 70.5562L79.3096 71.6101H82.7139C82.643 71.1886 82.4161 70.3033 82.0756 70.1347C81.7352 69.9661 82.643 61.4929 83.1395 57.2773L88.246 69.2916ZM77.3947 35.5674C79.0259 35.9187 82.3735 36.5791 82.7139 36.4105C83.6414 39.6424 85.7484 46.2327 86.7566 46.7385C87.2672 45.5582 87.9623 43.7174 88.246 42.9446C87.6077 41.1881 86.1608 37.6751 85.48 37.6751C85.1395 37.1693 83.7778 36.6213 83.1395 36.4105C81.2955 36.1295 77.5649 35.5674 77.3947 35.5674Z" stroke="#E6FB04" stroke-width="2" stroke-linecap="round" stroke-linejoin="round"/>
</g>
<g id="Vector 39">
<path d="M117.396 59.5955C118.247 58.5837 118.46 59.1739 118.46 59.5955C118.885 60.4386 116.971 66.7619 115.481 68.8696L115.447 68.9175C113.956 71.0281 111.61 74.3498 106.119 74.3498C101.643 74.3498 99.3955 70.7616 98.2499 67.382C97.9533 66.7099 97.7337 65.9446 97.6084 65.0757C97.7708 65.7996 97.9797 66.585 98.2499 67.382C100.975 73.5579 110.2 71.8658 112.502 70.3451C115.056 68.6588 116.332 60.8601 117.396 59.5955Z" fill="#E6FB04"/>
<path d="M108.885 47.1597C110.758 46.1479 112.644 48.1433 113.353 49.2674C113.566 47.5812 111.438 42.7334 107.396 46.5274C103.353 50.3213 103.566 59.5955 103.566 61.4925C103.566 63.3895 104.204 67.605 106.758 66.9727C108.8 66.4668 109.453 63.6705 109.524 62.3356C108.814 62.1248 107.141 61.7454 106.119 61.914C106.119 62.9679 108.034 63.6002 108.885 64.0218C108.204 66.0452 105.765 65.8485 104.63 65.4972C104.346 64.5136 103.864 61.7876 104.204 58.7524C104.63 54.9584 106.545 48.4243 108.885 47.1597Z" fill="#E6FB04"/>
<path d="M118.46 51.7968H114.417L113.779 52.64C113.779 52.8507 114.205 53.3566 115.907 53.6938C117.609 54.0311 119.453 53.5533 120.162 53.2723L119.737 46.5274C118.815 43.155 115.226 36.7474 108.247 38.0964C101.268 39.4453 98.6723 45.8248 98.2467 48.846C98.9559 45.9653 102.077 39.9512 108.885 38.9395C115.694 37.9277 118.105 47.0895 118.46 51.7968Z" fill="#E6FB04"/>
<path d="M105.481 60.8601C105.481 59.8765 105.609 57.825 106.119 57.4877C106.758 57.0662 115.056 58.7524 116.971 58.12M113.353 51.1644V49.2674M113.353 49.2674C112.644 48.1433 110.758 46.1479 108.885 47.1597C106.545 48.4243 104.63 54.9584 104.204 58.7524C103.864 61.7876 104.346 64.5136 104.63 65.4972C105.765 65.8485 108.204 66.0452 108.885 64.0218C108.034 63.6002 106.119 62.9679 106.119 61.914C107.141 61.7454 108.814 62.1248 109.524 62.3356C109.453 63.6705 108.8 66.4668 106.758 66.9727C104.204 67.605 103.566 63.3895 103.566 61.4925C103.566 59.5955 103.353 50.3213 107.396 46.5274C111.438 42.7334 113.566 47.5812 113.353 49.2674ZM118.46 59.5955C118.46 59.1739 118.247 58.5837 117.396 59.5955C116.332 60.8601 115.056 68.6588 112.502 70.3451C109.949 72.0313 98.885 73.9283 97.6084 65.0757C98.4595 68.8696 100.587 74.3498 106.119 74.3498C111.651 74.3498 113.992 70.9774 115.481 68.8696C116.971 66.7619 118.885 60.4386 118.46 59.5955ZM114.417 51.7968H118.46C118.105 47.0895 115.694 37.9277 108.885 38.9395C102.077 39.9512 98.9559 45.9653 98.2467 48.846C98.6723 45.8248 101.268 39.4453 108.247 38.0964C115.226 36.7474 118.815 43.155 119.737 46.5274L120.162 53.2723C119.453 53.5533 117.609 54.0311 115.907 53.6938C114.205 53.3566 113.779 52.8507 113.779 52.64L114.417 51.7968Z" stroke="#E6FB04" stroke-width="2" stroke-linecap="round" stroke-linejoin="round"/>
</g>
</g>
</svg>
