<svg width="50" height="50" viewBox="0 0 50 50" fill="none" xmlns="http://www.w3.org/2000/svg">
<circle cx="25" cy="25" r="25" fill="white"/>
<path d="M36.3768 29.7534C36.5417 29.7534 36.7003 29.8191 36.817 29.9359C36.9343 30.0532 37 30.2118 37 30.3767C37 30.5422 36.9343 30.7008 36.817 30.8175C36.7003 30.9343 36.5417 31 36.3768 31H13.6232C13.4583 31 13.2997 30.9343 13.183 30.8175C13.0657 30.7008 13 30.5422 13 30.3767C13 30.2118 13.0657 30.0532 13.183 29.9359C13.2997 29.8191 13.4583 29.7534 13.6232 29.7534H36.3768ZM36.3768 19C36.5417 19 36.7003 19.0657 36.817 19.1825C36.9343 19.2992 37 19.4578 37 19.6233C37 19.7882 36.9343 19.9468 36.817 20.0641C36.7003 20.1809 36.5417 20.2466 36.3768 20.2466H13.6232C13.4583 20.2466 13.2997 20.1809 13.183 20.0641C13.0657 19.9468 13 19.7882 13 19.6233C13 19.4578 13.0657 19.2992 13.183 19.1825C13.2997 19.0657 13.4583 19 13.6232 19H36.3768Z" fill="#2D2D2D"/>
</svg>
