<svg width="50" height="50" viewBox="0 0 50 50" fill="none" xmlns="http://www.w3.org/2000/svg">
<circle cx="25" cy="25" r="25" fill="#E6FB04"/>
<path d="M36.3763 29.7534C36.5412 29.7534 36.6998 29.8191 36.8165 29.9359C36.9338 30.0532 36.9995 30.2118 36.9995 30.3767C36.9995 30.5422 36.9338 30.7008 36.8165 30.8175C36.6998 30.9343 36.5412 31 36.3763 31H13.6227C13.4578 31 13.2992 30.9343 13.1825 30.8175C13.0652 30.7008 12.9995 30.5422 12.9995 30.3767C12.9995 30.2118 13.0652 30.0532 13.1825 29.9359C13.2992 29.8191 13.4578 29.7534 13.6227 29.7534H36.3763ZM36.3763 19C36.5412 19 36.6998 19.0657 36.8165 19.1825C36.9338 19.2992 36.9995 19.4578 36.9995 19.6233C36.9995 19.7882 36.9338 19.9468 36.8165 20.0641C36.6998 20.1809 36.5412 20.2466 36.3763 20.2466H13.6227C13.4578 20.2466 13.2992 20.1809 13.1825 20.0641C13.0652 19.9468 12.9995 19.7882 12.9995 19.6233C12.9995 19.4578 13.0652 19.2992 13.1825 19.1825C13.2992 19.0657 13.4578 19 13.6227 19H36.3763Z" fill="black"/>
</svg>
