<svg width="111" height="107" viewBox="0 0 111 107" fill="none" xmlns="http://www.w3.org/2000/svg">
<g id="Group 74">
<path id="Vector 51" d="M48.7526 80.0008C48.6936 81.5836 47.7153 85.0701 44.2746 86.3536C40.8338 87.6372 37.9445 84.3773 36.9299 82.5869C36.4663 82.9665 35.2379 83.9726 34.0327 84.9597C30.0357 86.6989 27.6283 82.341 27.8404 79.2901C10.993 83.3062 8.40836 63.3654 12.6983 56.7829C16.1303 51.517 21.1574 50.8779 23.2419 51.2165C22.083 48.7771 20.7548 42.7425 24.7133 38.1194C31.415 29.7535 41.307 34.5028 45.4375 38.6004C47.1761 28.43 52.153 31.1182 54.4242 33.7336C54.3105 30.7577 52.548 25.2964 58.7184 21.01C63.6548 17.5809 67.3364 22.3913 68.5602 25.2251C68.5397 23.3877 69.673 19.6335 74.3698 19.3161C80.2408 18.9194 80.853 23.213 81.1045 25.8842C83.901 22.4429 89.4964 22.6554 91.6371 25.5055C93.3496 27.7856 91.7968 31.7683 90.8063 33.4746M50.0689 81.608C52.7387 83.4494 59.2704 86.2708 64.0388 82.8257C69.9993 78.5194 71.2699 73.4509 69.6954 68.219C72.0831 69.716 78.3126 74.0124 82.8606 71.0548C87.4086 68.0971 86.335 61.1124 84.0784 58.3572C85.6855 58.1918 88.117 59.2693 92.0725 54.8789C96.0279 50.4885 97.4141 45.3252 96.3668 42.1551C95.3194 38.985 93.0781 35.0664 88.7203 35.183" stroke="#E6FB04" stroke-width="2" stroke-linecap="round" stroke-linejoin="round"/>
<path id="Vector 52" d="M28.9251 60.7559C28.2007 61.2917 26.6152 62.3249 25.5587 62.5768M25.5587 62.5768C25.4428 62.6044 25.3333 62.6226 25.232 62.6298C24.207 62.7021 31.6139 69.8703 35.4455 73.4454C32.5839 70.7534 26.6002 64.8108 25.5587 62.5768Z" stroke="#E6FB04" stroke-width="2" stroke-linecap="round" stroke-linejoin="round"/>
<g id="Vector 53">
<path d="M29.7647 60.8355L30.8361 60.7252L34.1203 63.7895L34.175 63.2653L34.2297 62.741L36.9016 61.5116L34.7803 62.876L34.8419 67.0347L29.7647 60.8355Z" fill="#E6FB04"/>
<path d="M38.0889 61.3065L40.1727 62.6687L39.8159 60.4675L38.0889 61.3065Z" fill="#E6FB04"/>
<path d="M44.5808 52.9207C44.3781 52.8309 43.7674 52.5895 42.9452 52.3422L46.0109 67.6693C44.9304 68.4264 42.7022 69.8421 42.4337 69.4482C42.1652 69.0543 40.0594 67.9402 39.0401 67.4324L38.8346 71.4369L36.2348 72.9907L36.2632 73.7346L38.0584 73.7988L40.6145 72.6644C40.5208 72.0378 40.464 70.4476 40.9862 69.0993C41.8311 69.9418 43.2537 70.0554 43.8593 70.0069C44.9431 69.4389 47.1558 68.0743 47.3359 67.1595C47.5161 66.2447 45.5742 57.2858 44.5808 52.9207Z" fill="#E6FB04"/>
<path d="M34.175 63.2653L34.1203 63.7895L30.8361 60.7252L29.7647 60.8355L34.8419 67.0347L34.7803 62.876M34.175 63.2653L34.2297 62.741L36.9016 61.5116L34.7803 62.876M34.175 63.2653L34.7803 62.876M38.8826 54.7105L39.8159 60.4675M39.8159 60.4675L40.1727 62.6687L38.0889 61.3065L39.8159 60.4675ZM39.3461 54.3308C40.1595 53.9843 42.0181 53.1015 42.9452 52.3422M42.9452 52.3422C43.7674 52.5895 44.3781 52.8309 44.5808 52.9207C45.5742 57.2858 47.5161 66.2447 47.3359 67.1595C47.1558 68.0743 44.9431 69.4389 43.8593 70.0069C43.2537 70.0554 41.8311 69.9418 40.9862 69.0993C40.464 70.4476 40.5208 72.0378 40.6145 72.6644L38.0584 73.7988L36.2632 73.7346L36.2348 72.9907L38.8346 71.4369L39.0401 67.4324C40.0594 67.9402 42.1652 69.0543 42.4337 69.4482C42.7022 69.8421 44.9304 68.4264 46.0109 67.6693L42.9452 52.3422Z" stroke="#E6FB04" stroke-width="2" stroke-linecap="round" stroke-linejoin="round"/>
</g>
<g id="Vector 54">
<path d="M55.7649 62.5575C53.741 66.5168 49.222 64.6555 47.2154 63.23C52.4676 67.7515 56.1038 64.3898 57.6541 62.7365C59.2043 61.0832 58.896 56.9242 57.9929 54.4031C57.0898 51.882 52.6468 49.7668 51.4813 49.7623C50.3159 49.7578 50.1781 50.0624 49.2007 50.2875C44.6177 51.5475 45.0004 52.9604 45.1447 53.6094C46.0434 52.1062 48.5863 49.0644 52.7036 51.2547C56.8209 53.4449 58.2947 57.6085 55.7649 62.5575Z" fill="#E6FB04"/>
<path d="M52.6053 57.2812C51.2605 54.9301 48.2846 56.0248 50.9173 59.2392C50.7577 59.7535 50.9741 60.727 49.9399 59.4642C48.9056 58.2014 48.5296 57.7423 48.9362 55.8747C49.3429 54.0072 51.1665 54.8153 52.2008 56.0781C52.6909 56.6765 52.8765 57.4009 52.9207 58.008C53.0367 58.4277 52.9965 58.7584 52.8641 59.0157C52.9145 58.7881 52.9511 58.4258 52.9207 58.008C52.8605 57.7904 52.7584 57.5489 52.6053 57.2812Z" fill="#E6FB04"/>
<path d="M51.3874 59.8131C51.8856 59.778 52.5828 59.5624 52.8641 59.0157M52.8641 59.0157C53.0651 58.625 53.0537 58.0652 52.6053 57.2813C51.2605 54.9301 48.2846 56.0248 50.9173 59.2392C50.7577 59.7535 50.9741 60.727 49.9399 59.4642C48.9056 58.2014 48.5296 57.7423 48.9362 55.8747C49.3429 54.0072 51.1665 54.8153 52.2008 56.0781C53.0282 57.0884 52.9877 58.4574 52.8641 59.0157ZM47.2154 63.23C49.222 64.6555 53.741 66.5168 55.7649 62.5575C58.2947 57.6085 56.8209 53.4449 52.7036 51.2547C48.5863 49.0644 46.0434 52.1062 45.1447 53.6094C45.0004 52.9604 44.6177 51.5475 49.2007 50.2875C50.1781 50.0624 50.3159 49.7578 51.4813 49.7623C52.6468 49.7668 57.0898 51.882 57.9929 54.4031C58.896 56.9242 59.2043 61.0832 57.6541 62.7365C56.1038 64.3898 52.4676 67.7515 47.2154 63.23Z" stroke="#E6FB04" stroke-width="2" stroke-linecap="round" stroke-linejoin="round"/>
</g>
<g id="Vector 55">
<path d="M58.3467 44.9067L57.0872 44.7874C58.5216 47.2953 61.128 49.4059 62.2519 50.1478C62.0908 49.3207 61.9222 47.6175 62.5362 47.4215C63.1501 47.2255 63.8736 46.454 64.1586 46.0927L61.7687 47.6665C61.8168 47.8828 61.7827 48.3455 61.2614 48.4655L58.3467 44.9067Z" fill="#E6FB04"/>
<path d="M65.9101 56.742L62.9626 58.5806C62.9962 58.9368 63.2123 59.642 63.8088 59.6138C64.4053 59.5856 66.4713 58.1365 67.4297 57.4155L66.7235 53.0069L65.7832 51.8589L65.9101 56.742Z" fill="#E6FB04"/>
<path d="M73.622 52.9193C72.8576 52.9316 71.0106 53.9073 70.1826 54.3936C70.5565 54.5349 71.4635 54.9174 72.1002 55.3165C72.7369 55.7157 74.5623 54.0673 75.3953 53.1932C75.2029 52.3278 74.7345 49.975 74.4004 47.4867C74.0663 44.9983 72.7655 39.1075 72.1569 36.4731L71.0133 36.2588L70.9981 37.4222C71.8851 42.1302 73.6518 51.8208 73.622 52.9193Z" fill="#E6FB04"/>
<path d="M67.4078 47.4595C66.5507 47.5477 65.5842 46.6514 65.2081 46.1922L67.0033 46.2564C66.5558 44.4491 65.655 40.6857 65.6323 40.0906C66.321 38.5675 71.0057 36.8405 70.1584 37.3427C69.4806 37.7444 67.0903 39.1522 65.9799 39.8059C66.4544 41.0156 67.4043 44.24 67.4078 47.4595Z" fill="#E6FB04"/>
<path d="M62.217 58.6158C59.7629 55.3831 54.428 48.5382 52.7207 47.021C53.277 46.5654 55.4772 45.6585 56.5078 45.262M66.2971 52.0135L70.1826 54.3936M70.1826 54.3936C71.0106 53.9073 72.8576 52.9316 73.622 52.9193C73.6518 51.8208 71.8851 42.1302 70.9981 37.4222L71.0133 36.2588L72.1569 36.4731C72.7655 39.1075 74.0663 44.9983 74.4004 47.4867C74.7345 49.975 75.2029 52.3278 75.3953 53.1932C74.5623 54.0673 72.7369 55.7157 72.1002 55.3165C71.4635 54.9174 70.5565 54.5349 70.1826 54.3936ZM57.0872 44.7874L58.3467 44.9067C59.0049 45.7103 60.5092 47.5471 61.2614 48.4655C61.7827 48.3455 61.8168 47.8828 61.7687 47.6665L64.1586 46.0927C63.8736 46.454 63.1501 47.2255 62.5362 47.4215C61.9222 47.6175 62.0908 49.3207 62.2519 50.1478C61.128 49.4059 58.5216 47.2953 57.0872 44.7874ZM62.9626 58.5806L65.9101 56.742L65.7832 51.8589L66.7235 53.0069L67.4297 57.4155C66.4713 58.1365 64.4053 59.5856 63.8088 59.6138C63.2123 59.642 62.9962 58.9368 62.9626 58.5806ZM65.2081 46.1922C65.5842 46.6514 66.5507 47.5477 67.4078 47.4595C67.4043 44.24 66.4544 41.0156 65.9799 39.8059C67.0903 39.1522 69.4806 37.7444 70.1584 37.3427C71.0057 36.8405 66.321 38.5675 65.6323 40.0906C65.655 40.6857 66.5558 44.4491 67.0033 46.2564L65.2081 46.1922Z" stroke="#E6FB04" stroke-width="2" stroke-linecap="round" stroke-linejoin="round"/>
</g>
<g id="Vector 56">
<path d="M77.4137 34.8529L80.3963 44.8775L78.4262 46.491L79.6419 47.0298C80.3227 46.6001 81.7393 45.6189 81.9597 45.1315C82.1801 44.6441 80.1841 37.7626 79.1586 34.3828L77.6171 33.9191L77.4137 34.8529Z" fill="#E6FB04"/>
<path d="M77.7261 45.563C76.2212 42.9174 73.3893 37.977 73.0975 37.6207C72.7214 37.1615 74.4939 42.489 77.7261 45.563Z" fill="#E6FB04"/>
<path d="M83.1382 47.0434L82.2985 46.9638L82.6593 48.5864L81.1887 49.7909L81.8469 50.5945L84.1572 49.4695L83.1382 47.0434Z" fill="#E6FB04"/>
<path d="M77.8621 45.8022C77.8181 45.7248 77.7727 45.645 77.7261 45.563M77.7261 45.563C76.2212 42.9174 73.3893 37.977 73.0975 37.6207C72.7214 37.1615 74.4939 42.489 77.7261 45.563ZM77.0377 34.3937C75.6835 35.1831 72.9244 36.8419 72.7214 37.1615M80.6893 50.1999L79.373 48.5927L82.0887 46.9439L83.1382 47.0434L84.1572 49.4695L81.8469 50.5945L81.1887 49.7909L82.6593 48.5864L82.2264 46.6393M80.3963 44.8775L77.4137 34.8529L77.6171 33.9191L79.1586 34.3828C80.1841 37.7626 82.1801 44.6441 81.9597 45.1315C81.7393 45.6189 80.3227 46.6001 79.6419 47.0298L78.4262 46.491L80.3963 44.8775Z" stroke="#E6FB04" stroke-width="2" stroke-linecap="round" stroke-linejoin="round"/>
</g>
</g>
</svg>
