<svg width="131" height="113" fill="none" xmlns="http://www.w3.org/2000/svg"><g id="Group 73"><g id="Vector 50"><path d="M92.515 77.05l.638.57c-.307 1.359-1.042 4.083-1.526 4.108-.604.03-2.637-.527-3.141-.863-.403-.268-.83-1.08-.992-1.453l2.873.395 1.308-2.594.42-.081-3.052-1.19-1.448 3.103-.555-.152 1.644-3.092.36.14 3.05 1.19.42-.08z" fill="#fff"/><path d="M92.095 77.132l-.42.081-1.308 2.594-2.873-.395c.163.372.589 1.185.992 1.453.504.336 2.537.894 3.141.863.484-.025 1.22-2.75 1.526-4.109l-.638-.569-.42.082zm0 0l-3.052-1.19m0 0l-.359-.14-1.644 3.091.555.152 1.448-3.104z" stroke="#fff" stroke-width="2" stroke-linecap="round" stroke-linejoin="round"/></g><path id="Vector 43" d="M39.52 16.034c-4.043-1.44-13.566-2.27-19.312 5.917-4.822 6.87-3.168 13.873-1.068 17.818m1.214 1.908a13.654 13.654 0 01-1.214-1.908m0 0c-5.691 2.57-14.65 10.465-4.955 21.475m3.325-1.252c-3.37 1.896-8.494 7.628-2.04 15.386 4.72 5.391 12.492 2.512 15.789.4m-4.13 4.18c.904 3.464 5.056 11.114 14.436 14.006 9.381 2.891 16.325-2.998 18.624-6.303m-1.397-4.321c2.251 5.415 9.196 13.894 19.88 7.93m2.664-1.738a24.24 24.24 0 01-2.663 1.738m0 0c2.43 4.175 9.914 11.947 20.407 9.632 13.116-2.894 16.671-12.942 12.968-24.787m3.495 1.748c3.083-3.025 7.455-10.355.276-15.477m-3.61 1.568c5.9-2.908 15.251-11.679 5.462-23.502-4.545-4.87-9.576-3.483-11.524-2.18m.673 1.168c-.265-3.616-1.952-11.56-6.576-14.405-5.78-3.557-11.172-3.463-17.938.191m.506 4.667c-1.806-5.483-8.206-16.861-19.36-18.508-13.942-2.057-19.365 1.769-25.861 8.056" stroke="#fff" stroke-width="2" stroke-linecap="round" stroke-linejoin="round"/><g id="Vector 44"><path d="M44.178 53.34c-1.861 4.607-5.336 8.574-13.5 5.74-4.968-1.723-5.504-6.457-4.54-11.68-1.69 5.442-.652 8.877 2.39 12.272 3.042 3.395 7.174 3.545 11.02 1.845 3.845-1.7 7.334-8.616 8.302-19.375.968-10.758-7.364-12.26-7.985-11.446 11.843 2.466 6.175 18.036 4.313 22.643z" fill="#fff"/><path d="M38.571 30.341c-2.24-.287-7.272.72-9.485 7.041-1.084 3.094-2.326 6.657-2.947 10.018m0 0c-.965 5.223-.43 9.957 4.538 11.68 8.165 2.834 11.64-1.133 13.501-5.74 1.862-4.608 7.53-20.178-4.313-22.644.621-.813 8.953.688 7.985 11.446-.968 10.759-4.457 17.675-8.303 19.375-3.845 1.7-7.977 1.55-11.019-1.845s-4.08-6.83-2.39-12.272z" stroke="#fff" stroke-width="2" stroke-linecap="round" stroke-linejoin="round"/></g><g id="Vector 45"><path d="M33.204 42.648c1.155-6.377 7.723-4.966 7.27-3.319-6.752-1.46-6.76 12.317-6.928 13.65-1.462-1.19-1.497-3.955-.342-10.331z" fill="#fff"/><path d="M34.47 53.232c.448.058 1.663-.41 2.938-2.736 1.594-2.91 2.614-9.52 3.067-11.167m0 0c.452-1.647-6.116-3.058-7.271 3.319-1.155 6.376-1.12 9.141.342 10.33.167-1.332.176-15.11 6.929-13.649z" stroke="#fff" stroke-width="2" stroke-linecap="round" stroke-linejoin="round"/></g><g id="Vector 46"><path d="M45.83 53.203l5.946-18.841c.087.09.195.233.285.408.834-.143 3.01-.251 5.04.464 2.536.893 2.706 3.893 2.959 5.143.202 1.001 2.2-1.495 3.173-2.868 1.763.09 5.408.422 5.879 1.024.588.752-2.184-.01-3.292-.314-.887-.243-1.456-.006-1.63.143l-4.985 5.127-2.036-7.055-5.108-1.663c.174.339.282.802.052 1.258-.35.692-4.334 11.737-6.282 17.174zm24.055-13.867l1.076 1.87c.43.748-2.373 20.216-3.828 29.857l-6.098-1.675c-1.33-.366-1.362-1.555-1.211-2.105l5.46 1.106c1.164-9.064 3.544-27.375 3.745-28.107.201-.732.654-.936.856-.946z" fill="#fff"/><path d="M61.475 48.247l-.352 3.347c-1.075 1.257-2.882 3.271-3.557 3.651-.752.423-1.478-.406-1.747-.874l-1.16-2.287c-1.694 4.719-5.121 14.303-5.282 14.89-.161.585-3.953-.562-5.83-1.208l-.236-2.034 5.24.455 6.206-16.8 1.733 5.987 4.985-5.127z" fill="#fff"/><path d="M42.572 63.53l3.258-10.327m0 0l5.946-18.841c.087.09.195.233.285.408m-6.23 18.433c1.948-5.437 5.933-16.482 6.282-17.174.23-.456.122-.92-.052-1.259m0 0c.834-.143 3.01-.251 5.04.464 2.536.893 2.706 3.893 2.959 5.143.202 1.001 2.2-1.495 3.173-2.868 1.763.09 5.408.422 5.879 1.024.588.752-2.184-.01-3.292-.314-.887-.243-1.456-.006-1.63.143l-4.985 5.127-2.036-7.055-5.108-1.663zm7.56 31.08l1.854-17.603-4.985 5.127-1.733-5.988-6.205 16.801-5.24-.455.236 2.034c1.876.646 5.668 1.793 5.829 1.207.16-.586 3.588-10.17 5.281-14.889l1.16 2.287c.27.468.996 1.297 1.748.874.752-.423 2.91-2.876 3.894-4.049m9.501-9.99l-1.076-1.87c-.202.01-.655.214-.856.946-.201.732-2.58 19.043-3.746 28.107l-5.459-1.105c-.15.549-.12 1.738 1.21 2.104l6.099 1.675c1.455-9.64 4.258-29.108 3.828-29.857z" stroke="#fff" stroke-width="2" stroke-linecap="round" stroke-linejoin="round"/></g><g id="Vector 47"><path d="M88.589 55.89c.827-2.528 2.25-8.044 1.32-9.873-1.16-2.288-5.41-5.621-10.835-3.961-4.34 1.328-7.414 7.938-8.408 11.077 1.032-4.966 5.363-14.315 14.42-11.985 2.81.772 5.047 3.092 5.814 4.156.611 1.152 1.475 4.618.04 9.264l-1.056 3.844c-1.282-.155-3.965-.616-4.435-1.218-.47-.602-1.496-1.79-1.95-2.308l.25.05.605-3.161c-.612-1.875-2.737-4.65-6.35-.76-4.515 4.862-6.273 13.435-2.779 15.183 2.796 1.398 3.942-.361 4.165-1.416-2.392-1.13-2.6-2.354-2.404-2.825l4 2.082c-1 2.679-1.611 3.692-5.357 2.86-3.746-.832-4.186-6.465-1.452-12.801 2.734-6.337 6.68-8.403 9.47-6.258 2.23 1.715 1.334 5.511.606 7.195l4.336.856z" fill="#fff"/><path d="M83.748 54.936l-.249-.05c.454.519 1.48 1.706 1.95 2.308.47.602 3.153 1.063 4.435 1.218l1.056-3.844c1.435-4.646.572-8.112-.04-9.264-.767-1.064-3.005-3.384-5.814-4.156-9.057-2.33-13.388 7.02-14.42 11.985.994-3.139 4.069-9.75 8.408-11.077 5.424-1.66 9.676 1.673 10.836 3.96.928 1.83-.494 7.346-1.321 9.875l-4.336-.856m-.505-.1l.606-3.16c-.612-1.875-2.737-4.65-6.35-.76-4.515 4.862-6.273 13.435-2.779 15.183 2.796 1.398 3.942-.361 4.165-1.416-2.392-1.13-2.6-2.354-2.404-2.825l4 2.082c-1 2.679-1.611 3.692-5.357 2.86-3.746-.832-4.186-6.465-1.452-12.801 2.734-6.337 6.68-8.403 9.47-6.258 2.23 1.715 1.334 5.511.606 7.195m-.505-.1l.505.1m-6.965 5.823l1.359-2.776c1.943 1.124 6.21 3.438 7.728 3.697" stroke="#fff" stroke-width="2" stroke-linecap="round" stroke-linejoin="round"/></g><path id="Vector 48" d="M88.29 63.487c-.55-.309-.957-.854-1.092-1.087-1.98 3.59-4.243 9.662-9.667 11.322-4.34 1.328-7.801-3.193-8.99-5.62.04.34.068 1.2-.133 1.933 1.076 1.87 2.303 3.192 6.268 4.674 3.965 1.483 7.742-1.417 9.454-3.309 1.712-1.892 4.85-7.527 4.16-7.913z" fill="#fff" stroke="#fff" stroke-width="2" stroke-linecap="round" stroke-linejoin="round"/><g id="Vector 49"><path d="M92.83 70.837l-3.796-.65c.521 1.719-.033 1.567 3.193 2.846 2.58 1.024 3.011-.354 2.905-1.17l8.1-20.809c-.214-.912-.761-2.729-1.245-2.704-.484.024-6.306 15.001-9.157 22.487zm8.133-22.375c.268-.254.621-.814-.118-1.017-.761-.209-3.278-.9-5.259-1.114.82.49 3.926 1.625 5.377 2.131z" fill="#fff"/><path d="M88.73 69.12c1.475-6.814 4.674-20.923 5.68-22.851a9.2 9.2 0 011.176.062m0 0c1.98.214 4.498.905 5.259 1.114.739.203.386.763.118 1.017-1.45-.506-4.557-1.642-5.377-2.13zm-6.552 23.857l3.796.649c2.85-7.486 8.673-22.463 9.157-22.487.484-.025 1.031 1.792 1.245 2.704l-8.1 20.809c.106.816-.325 2.194-2.905 1.17-3.226-1.28-2.672-1.127-3.193-2.845z" stroke="#fff" stroke-width="2" stroke-linecap="round" stroke-linejoin="round"/></g></g></svg>