<svg width="189" height="35" fill="none" xmlns="http://www.w3.org/2000/svg"><g clip-path="url(#clip0_29_217)" fill-rule="evenodd" clip-rule="evenodd" fill="#fff"><path d="M54.203 0a18.775 18.775 0 01-1.443 7.245 18.856 18.856 0 01-4.129 6.138 18.967 18.967 0 01-6.167 4.105 19.044 19.044 0 01-7.28 1.436 19.05 19.05 0 01-7.282-1.435 18.971 18.971 0 01-6.171-4.106 18.86 18.86 0 01-4.125-6.14A18.78 18.78 0 0116.166 0h5.703a13.155 13.155 0 001.01 5.07 13.198 13.198 0 002.89 4.295 13.284 13.284 0 004.318 2.875 13.339 13.339 0 005.097 1.005c1.75.002 3.481-.34 5.097-1.005a13.279 13.279 0 004.318-2.875 13.199 13.199 0 002.89-4.295A13.144 13.144 0 0048.499 0h5.704z"/><path d="M62.287 0a26.756 26.756 0 01-2.057 10.32 26.87 26.87 0 01-5.882 8.743 27.11 27.11 0 01-8.792 5.844 27.224 27.224 0 01-20.742 0 27.11 27.11 0 01-8.792-5.844 26.87 26.87 0 01-5.881-8.744A26.757 26.757 0 018.084 0h5.703a21.123 21.123 0 001.624 8.148 21.214 21.214 0 004.643 6.903 21.34 21.34 0 006.94 4.62 21.43 21.43 0 008.192 1.615 21.43 21.43 0 008.19-1.616 21.338 21.338 0 006.94-4.619 21.208 21.208 0 004.647-6.903A21.121 21.121 0 0056.59 0h5.697z"/><path d="M70.369 0a34.731 34.731 0 01-2.67 13.398 34.881 34.881 0 01-7.636 11.35 35.087 35.087 0 01-11.41 7.596A35.235 35.235 0 0135.184 35a35.242 35.242 0 01-13.468-2.656 35.094 35.094 0 01-11.412-7.595A34.885 34.885 0 012.67 13.397 34.738 34.738 0 010 0h5.703A29.101 29.101 0 007.94 11.226a29.224 29.224 0 006.397 9.51 29.4 29.4 0 009.562 6.365 29.523 29.523 0 0011.286 2.226c3.873.005 7.709-.75 11.287-2.225a29.397 29.397 0 009.562-6.365 29.228 29.228 0 006.397-9.512A29.103 29.103 0 0064.667 0h5.702zm19.24 8.904V.528h7.628v7.768a7.732 7.732 0 01-.398 2.563 5.16 5.16 0 01-1.155 1.915c-.51.524-1.09.973-1.727 1.335a8.413 8.413 0 01-2.258.859 20.02 20.02 0 01-2.602.435c-.949.093-1.902.14-2.856.138a28.727 28.727 0 01-3.425-.185 14.227 14.227 0 01-2.99-.69 8.01 8.01 0 01-2.432-1.297 5.687 5.687 0 01-1.58-2.088 7.035 7.035 0 01-.598-2.985V.528h7.65v8.376c0 1.057.283 1.823.85 2.299.567.475 1.408.713 2.523.713.392.003.783-.033 1.169-.106.33-.062.647-.173.943-.33.269-.144.505-.342.694-.58.192-.258.333-.55.416-.86.101-.37.15-.752.145-1.136h.003zm27.591 1.347V.528h4.439v14.479h-8.877l-8.703-9.723v9.723H99.62V.528h8.877l8.703 9.723zm17.855-6.63c-1.329 0-2.281.33-2.856.99-.575.66-.863 1.712-.863 3.156 0 1.444.288 2.497.863 3.158.575.662 1.527.992 2.856.991a4.754 4.754 0 001.82-.305c.465-.185.87-.496 1.167-.898.321-.463.534-.99.625-1.545h7.65a6.47 6.47 0 01-1.253 2.983 6.516 6.516 0 01-2.546 2.01c-1.074.49-2.208.842-3.373 1.044-1.351.23-2.72.341-4.09.33a25.078 25.078 0 01-3.606-.237 14.396 14.396 0 01-3.107-.806 8.366 8.366 0 01-2.477-1.44 6.06 6.06 0 01-1.591-2.219 7.623 7.623 0 01-.584-3.066 7.617 7.617 0 01.584-3.064c.354-.85.898-1.61 1.591-2.22a8.362 8.362 0 012.484-1.44 14.397 14.397 0 013.107-.806c1.194-.166 2.4-.245 3.606-.237 1.37-.011 2.739.1 4.09.33 1.163.205 2.294.557 3.366 1.05a6.724 6.724 0 012.523 1.967 6.518 6.518 0 011.276 3h-7.65c-.195-.939-.575-1.629-1.142-2.07-.567-.442-1.39-.662-2.47-.66v.003zM155.932.527v11.045h11.893v3.434h-19.542V.528h7.649zm13.519 0h19.556v3.25h-11.9V6.13h10.652l-.531 3.09h-10.125v2.168h11.9v3.619h-19.557V.528h.005zm-83.22 22.555c-1.327 0-2.28.33-2.855.991-.576.66-.864 1.713-.863 3.158 0 1.444.288 2.496.863 3.157.575.66 1.527.99 2.856.99.62.02 1.239-.084 1.82-.303a2.7 2.7 0 001.167-.898c.32-.463.534-.99.624-1.546h7.662a6.467 6.467 0 01-1.253 2.983 6.512 6.512 0 01-2.546 2.01 13.73 13.73 0 01-3.373 1.044c-1.35.231-2.72.342-4.09.33a25.071 25.071 0 01-3.606-.238 14.32 14.32 0 01-3.107-.806 8.338 8.338 0 01-2.484-1.439 6.085 6.085 0 01-1.594-2.22 8.337 8.337 0 010-6.13c.355-.85.9-1.608 1.594-2.218a8.313 8.313 0 012.484-1.44 14.32 14.32 0 013.107-.806c1.194-.167 2.4-.246 3.606-.239 1.37-.011 2.74.1 4.09.331 1.162.202 2.293.55 3.366 1.04a6.76 6.76 0 012.525 1.968 6.532 6.532 0 011.281 2.998h-7.657c-.195-.933-.575-1.62-1.142-2.06-.567-.44-1.39-.66-2.47-.66l-.004.003zm27.624 2.431v-5.518h7.628V34.47h-7.628v-5.518h-6.742v5.518h-7.65V19.993h7.65v5.519l6.742.002zm17.956 8.957h-7.647V19.993h7.651V34.47h-.004zm10.305-14.478V31.03h11.899v3.436h-19.544V19.993h7.645zm21.168 0V31.03h11.9v3.436h-19.545V19.993h7.645z"/></g><defs><clipPath id="clip0_29_217"><path fill="#fff" d="M0 0h189v35H0z"/></clipPath></defs></svg>