<svg width="111" height="107" fill="none" xmlns="http://www.w3.org/2000/svg"><g id="Group 74"><path id="Vector 51" d="M48.753 80c-.06 1.584-1.038 5.07-4.478 6.354-3.441 1.283-6.33-1.977-7.345-3.767l-2.897 2.373c-3.997 1.739-6.405-2.619-6.193-5.67-16.847 4.016-19.432-15.925-15.142-22.507 3.432-5.266 8.46-5.905 10.544-5.566-1.159-2.44-2.487-8.474 1.471-13.098 6.702-8.366 16.594-3.616 20.724.481 1.74-10.17 6.716-7.482 8.987-4.866-.114-2.976-1.876-8.438 4.294-12.724 4.937-3.43 8.618 1.381 9.842 4.215-.02-1.837 1.113-5.591 5.81-5.909 5.87-.397 6.483 3.897 6.734 6.568 2.797-3.441 8.392-3.229 10.533-.378 1.713 2.28.16 6.262-.83 7.969M50.068 81.608c2.67 1.841 9.201 4.663 13.97 1.218 5.96-4.307 7.23-9.375 5.656-14.607 2.388 1.497 8.618 5.793 13.166 2.836 4.548-2.958 3.474-9.943 1.217-12.698 1.608-.165 4.039.912 7.995-3.478 3.955-4.39 5.341-9.554 4.294-12.724-1.048-3.17-3.289-7.089-7.647-6.972" stroke="#E6FB04" stroke-width="2" stroke-linecap="round" stroke-linejoin="round"/><path id="Vector 52" d="M28.925 60.756c-.724.536-2.31 1.569-3.366 1.82m0 0a2.052 2.052 0 01-.327.054c-1.025.072 6.382 7.24 10.214 10.815-2.862-2.692-8.846-8.634-9.887-10.868z" stroke="#E6FB04" stroke-width="2" stroke-linecap="round" stroke-linejoin="round"/><g id="Vector 53"><path d="M29.765 60.836l1.071-.11 3.284 3.063.055-.524.055-.524 2.672-1.23-2.122 1.365.062 4.159-5.077-6.2zm8.324.47l2.084 1.363-.357-2.201-1.727.838z" fill="#E6FB04"/><path d="M44.58 52.92c-.202-.09-.813-.33-1.635-.578l3.066 15.327c-1.08.757-3.309 2.173-3.577 1.78-.269-.395-2.375-1.509-3.394-2.017l-.205 4.005-2.6 1.554.028.744 1.795.064 2.556-1.135c-.093-.626-.15-2.216.372-3.565.845.843 2.268.956 2.873.908 1.084-.568 3.297-1.933 3.477-2.848.18-.914-1.762-9.873-2.755-14.238z" fill="#E6FB04"/><path d="M34.175 63.265l-.055.524-3.284-3.064-1.071.11 5.077 6.2-.062-4.159m-.605.39l.055-.525 2.672-1.23-2.122 1.365m-.605.39l.605-.39m4.103-8.165l.933 5.757m0 0l.357 2.2-2.084-1.361 1.727-.84zm-.47-6.137c.814-.347 2.672-1.23 3.6-1.989m0 0c.821.248 1.432.489 1.635.579.993 4.365 2.935 13.324 2.755 14.238-.18.915-2.393 2.28-3.477 2.848-.605.048-2.028-.065-2.873-.908-.522 1.349-.465 2.939-.371 3.565L38.057 73.8l-1.795-.064-.028-.744 2.6-1.554.205-4.005c1.02.508 3.125 1.622 3.394 2.016.268.394 2.496-1.022 3.577-1.779l-3.066-15.327z" stroke="#E6FB04" stroke-width="2" stroke-linecap="round" stroke-linejoin="round"/></g><g id="Vector 54"><path d="M55.765 62.557c-2.024 3.96-6.543 2.099-8.55.673 5.253 4.521 8.889 1.16 10.44-.493 1.55-1.654 1.241-5.813.338-8.334s-5.346-4.636-6.512-4.64c-1.165-.005-1.303.3-2.28.525-4.583 1.26-4.2 2.672-4.056 3.321.898-1.503 3.441-4.545 7.559-2.354 4.117 2.19 5.59 6.353 3.06 11.302z" fill="#E6FB04"/><path d="M52.605 57.281c-1.344-2.35-4.32-1.256-1.688 1.958-.16.515.057 1.488-.977.225s-1.41-1.722-1.004-3.59c.407-1.867 2.23-1.059 3.265.204.49.598.675 1.323.72 1.93.116.42.075.75-.057 1.008.05-.228.087-.59.057-1.008a3.198 3.198 0 00-.316-.727z" fill="#E6FB04"/><path d="M51.387 59.813c.499-.035 1.196-.25 1.477-.797m0 0c.201-.391.19-.95-.259-1.735-1.344-2.35-4.32-1.256-1.688 1.958-.16.515.057 1.488-.977.225s-1.41-1.722-1.004-3.59c.407-1.867 2.23-1.059 3.265.204.827 1.01.787 2.38.663 2.938zm-5.649 4.214c2.007 1.426 6.526 3.287 8.55-.672 2.53-4.95 1.056-9.113-3.061-11.303-4.118-2.19-6.66.851-7.56 2.354-.144-.649-.526-2.062 4.057-3.322.977-.225 1.115-.53 2.28-.525 1.166.005 5.609 2.12 6.512 4.641.903 2.521 1.211 6.68-.339 8.334-1.55 1.653-5.186 5.014-10.439.493z" stroke="#E6FB04" stroke-width="2" stroke-linecap="round" stroke-linejoin="round"/></g><g id="Vector 55"><path d="M58.347 44.907l-1.26-.12c1.435 2.508 4.041 4.619 5.165 5.36-.161-.826-.33-2.53.284-2.725.614-.197 1.338-.968 1.623-1.33l-2.39 1.575c.048.216.014.678-.508.798l-2.914-3.558zm7.563 11.835l-2.947 1.839c.033.356.25 1.061.846 1.033.596-.028 2.662-1.477 3.62-2.198l-.706-4.41-.94-1.147.127 4.883zm7.712-3.822c-.764.012-2.611.987-3.44 1.474.374.14 1.281.523 1.918.922.637.4 2.462-1.249 3.295-2.123a76.86 76.86 0 01-.995-5.706c-.334-2.489-1.635-8.38-2.243-11.014l-1.144-.214-.015 1.163c.887 4.708 2.654 14.399 2.624 15.497zm-6.214-5.46c-.857.088-1.824-.809-2.2-1.268l1.795.064c-.447-1.807-1.348-5.57-1.37-6.165.688-1.523 5.373-3.25 4.525-2.748-.677.401-3.068 1.81-4.178 2.463.474 1.21 1.424 4.434 1.428 7.654z" fill="#E6FB04"/><path d="M62.217 58.616c-2.454-3.233-7.789-10.078-9.496-11.595.556-.456 2.756-1.363 3.787-1.759m9.79 6.752l3.885 2.38m0 0c.828-.487 2.675-1.462 3.439-1.475.03-1.098-1.737-10.789-2.624-15.497l.015-1.163 1.144.214c.609 2.635 1.91 8.525 2.243 11.014a76.86 76.86 0 00.995 5.706c-.833.874-2.658 2.523-3.295 2.123-.636-.399-1.543-.781-1.917-.922zm-13.096-9.607l1.26.12 2.914 3.559c.522-.12.556-.583.508-.8l2.39-1.573c-.285.361-1.009 1.132-1.623 1.328-.614.197-.445 1.9-.284 2.727-1.124-.742-3.73-2.853-5.165-5.36zm5.876 13.794l2.947-1.839-.127-4.883.94 1.148.707 4.409c-.959.72-3.025 2.17-3.621 2.198-.597.028-.813-.677-.846-1.033zm2.245-12.389c.376.46 1.343 1.356 2.2 1.267-.004-3.219-.954-6.443-1.428-7.653 1.11-.654 3.5-2.062 4.178-2.463.848-.503-3.837 1.224-4.526 2.748.023.595.924 4.358 1.371 6.165l-1.795-.064z" stroke="#E6FB04" stroke-width="2" stroke-linecap="round" stroke-linejoin="round"/></g><g id="Vector 56"><path d="M77.414 34.853l2.982 10.024-1.97 1.614 1.216.539c.68-.43 2.097-1.411 2.318-1.898.22-.488-1.776-7.37-2.801-10.75l-1.542-.463-.203.934zm.312 10.71c-1.505-2.646-4.337-7.586-4.629-7.942-.376-.46 1.397 4.868 4.63 7.942zm5.412 1.48l-.84-.08.361 1.623-1.47 1.205.658.803 2.31-1.125-1.019-2.426z" fill="#E6FB04"/><path d="M77.862 45.802l-.136-.239m0 0c-1.505-2.646-4.337-7.586-4.629-7.942-.376-.46 1.397 4.868 4.63 7.942zm-.688-11.17c-1.355.79-4.114 2.449-4.317 2.768M80.69 50.2l-1.316-1.607 2.716-1.65 1.05.1 1.018 2.426-2.31 1.125-.658-.803 1.47-1.205-.433-1.947m-1.83-1.762l-2.982-10.024.203-.934 1.542.464c1.025 3.38 3.021 10.261 2.8 10.748-.22.488-1.636 1.47-2.317 1.899l-1.216-.539 1.97-1.614z" stroke="#E6FB04" stroke-width="2" stroke-linecap="round" stroke-linejoin="round"/></g></g></svg>