<svg width="31" height="31" fill="none" xmlns="http://www.w3.org/2000/svg"><g id="facebook 1"><path id="Vector" d="M23.125 3.356c1.24 0 2.3.44 3.18 1.32.88.88 1.32 1.94 1.32 3.18v15c0 1.24-.44 2.3-1.32 3.18-.88.88-1.94 1.32-3.18 1.32h-2.938v-9.297h3.11l.469-3.625h-3.578v-2.312c0-.584.122-1.021.367-1.313.244-.292.721-.437 1.43-.437l1.906-.016V7.122c-.657-.094-1.584-.141-2.782-.141-1.416 0-2.55.417-3.398 1.25-.849.833-1.273 2.01-1.273 3.531v2.672h-3.125v3.625h3.124v9.297H8.126c-1.24 0-2.3-.44-3.18-1.32-.88-.88-1.32-1.94-1.32-3.18v-15c0-1.24.44-2.3 1.32-3.18.88-.88 1.94-1.32 3.18-1.32h15z" fill="#2D2D2D"/></g></svg>