<svg width="50" height="31" fill="none" xmlns="http://www.w3.org/2000/svg"><g id="Alex Software White 1" clip-path="url(#clip0_29_673)"><g id="Group"><g id="Слой_3"><g id="Group_2"><g id="Group_3" fill="#fff"><g id="Group_4"><path id="Vector" d="M22.952 19.972H.605L11.775.509l11.177 19.463zM5.065 17.378h13.428c-2.15-3.747-4.577-7.968-6.719-11.698-2.133 3.73-4.56 7.96-6.71 11.698z"/><path id="Vector_2" d="M22.95 20.48H.606a.503.503 0 01-.437-.254.501.501 0 010-.509L11.337.254a.503.503 0 01.873 0l11.178 19.463a.501.501 0 010 .509.503.503 0 01-.437.254zM1.479 19.463h20.6L11.774 1.526 1.478 19.463zm17.014-1.577H5.064a.503.503 0 01-.437-.254.501.501 0 010-.509c2.31-4.01 4.686-8.163 6.71-11.698a.503.503 0 01.873 0c.882 1.535 1.806 3.145 2.746 4.773 1.344 2.34 2.713 4.713 3.972 6.925a.501.501 0 010 .509.503.503 0 01-.436.254zM5.937 16.87h11.681c-1.142-1.984-2.343-4.086-3.535-6.163-.781-1.364-1.562-2.712-2.31-4.018A2631.746 2631.746 0 015.937 16.87z"/></g><g id="Group_5"><g id="Group_6"><path id="Vector_3" d="M23.093 16.37V5.026h2.116v9.215h4.207v2.127h-6.323z"/><path id="Vector_4" d="M29.417 16.539h-6.323l-.168-.17V5.027l.168-.17h2.116l.168.17v9.045h4.04l.167.17v2.127l-.168.17zm-6.155-.34h5.987v-1.788H25.21l-.168-.17V5.197h-1.78V16.2z"/></g><g id="Group_7"><path id="Vector_5" d="M31.339 16.37V5.026h7.046v2.128h-4.921v2.399h4.82v2.128h-4.82v2.568h4.92v2.128H31.34v-.009z"/><path id="Vector_6" d="M38.386 16.547h-7.045l-.168-.17V5.028l.168-.17h7.045l.168.17v2.128l-.168.17h-4.753v2.06h4.653l.168.169v2.127l-.168.17h-4.653v2.23h4.753l.168.169v2.128l-.168.17zm-6.877-.339h6.71v-1.789h-4.754l-.168-.17v-2.568l.168-.17h4.653V9.724h-4.653l-.168-.17V7.156l.168-.17h4.753V5.197h-6.71v11.011z"/></g><g id="Group_8"><path id="Vector_7" d="M47.321 16.37l-2.494-4.154-2.51 4.153h-2.52l3.61-5.815-3.383-5.527h2.519l2.284 3.874 2.25-3.874h2.554l-3.385 5.51 3.611 5.832h-2.536z"/><path id="Vector_8" d="M49.858 16.539h-2.536l-.142-.085-2.352-3.917-2.368 3.917-.143.085h-2.519l-.143-.263 3.553-5.722-3.326-5.434.143-.263h2.52l.142.085 2.141 3.628 2.108-3.628.143-.085h2.553l.143.263-3.326 5.417 3.552 5.739-.142.263zm-2.443-.34h2.141l-3.451-5.569v-.178l3.224-5.247h-2.158l-2.2 3.78h-.285l-2.234-3.788h-2.125l3.225 5.264v.178L40.1 16.19h2.125l2.46-4.069h.286l2.444 4.078z"/></g></g></g></g></g></g><g id="Group_9" fill="#fff"><path id="Vector_9" d="M0 30.253l.453-.636c.32.348.823.653 1.478.653.672 0 .941-.33.941-.644 0-.992-2.72-.373-2.72-2.111 0-.78.68-1.373 1.696-1.373.73 0 1.31.229 1.746.652l-.47.61c-.361-.364-.857-.533-1.352-.533-.479 0-.79.229-.79.585 0 .873 2.713.33 2.713 2.085 0 .78-.546 1.45-1.806 1.45-.856.008-1.478-.289-1.889-.738z"/><path id="Vector_10" d="M6.19 28.567c0-1.407.982-2.433 2.384-2.433 1.394 0 2.385 1.034 2.385 2.433 0 1.407-.982 2.433-2.385 2.433-1.394 0-2.385-1.026-2.385-2.433zm3.93 0c0-.975-.605-1.704-1.546-1.704-.94 0-1.545.729-1.545 1.704 0 .966.605 1.703 1.545 1.703.941 0 1.546-.737 1.546-1.703z"/><path id="Vector_11" d="M13.696 30.915V26.21h3.191v.729h-2.376v1.22h2.326v.73h-2.326v2.034h-.815v-.008z"/><path id="Vector_12" d="M20.683 30.915v-3.976h-1.41v-.729h3.644v.729h-1.41v3.976h-.824z"/><path id="Vector_13" d="M29.122 30.915l-.906-3.467-.899 3.467h-.873l-1.336-4.705h.916l.907 3.628.965-3.628h.647l.966 3.628.898-3.628h.916l-1.327 4.705h-.873z"/><path id="Vector_14" d="M43.13 30.915l-1.032-1.755h-.815v1.755h-.814V26.21h2.049c.923 0 1.52.61 1.52 1.475 0 .84-.546 1.288-1.1 1.382l1.142 1.848h-.95zm.076-3.23c0-.45-.336-.746-.797-.746h-1.117v1.492h1.117c.462 0 .797-.297.797-.746z"/><path id="Vector_15" d="M46.81 30.915V26.21h3.192v.729h-2.377v1.22h2.326v.73h-2.326v1.305h2.377v.73H46.81v-.01z"/></g><path id="Vector_16" d="M37.898 30.915H33.48a.423.423 0 01-.36-.636l1.1-1.932 1.108-1.933a.423.423 0 01.36-.212c.152 0 .286.085.362.212l1.108 1.933 1.1 1.932a.424.424 0 01-.36.636zm-3.696-.847h2.965l-.74-1.297-.746-1.297-.748 1.297-.73 1.297z" fill="#fff"/></g><defs><clipPath id="clip0_29_673"><path fill="#fff" d="M0 0h50v31H0z"/></clipPath></defs></svg>