<svg width="40" height="40" fill="none" xmlns="http://www.w3.org/2000/svg"><g id="phone (1) 1"><path id="Vector" d="M28.848 24.473l-2.885 1.625a1.82 1.82 0 01-2.179-.3l-9.626-9.625a1.82 1.82 0 01-.3-2.18l1.625-2.884a2.728 2.728 0 00-.448-3.269l-4.323-4.323a2.729 2.729 0 00-3.859 0L4.89 5.48a7.277 7.277 0 00-1.093 8.89l.984 1.642a57.048 57.048 0 0020.616 20.18l.194.112c2.9 1.657 6.481 1.174 8.803-1.146l2.05-2.05a2.729 2.729 0 000-3.859l-4.326-4.325a2.728 2.728 0 00-3.27-.45z" fill="#2D2D2D"/></g></svg>