<svg width="31" height="31" fill="none" xmlns="http://www.w3.org/2000/svg"><g id="instagram-logo 1" clip-path="url(#clip0_29_1124)" fill="#2D2D2D"><path id="Vector" d="M15.625 19.106a3.75 3.75 0 100-7.5 3.75 3.75 0 000 7.5z"/><path id="Vector_2" d="M20.781 3.637H10.47A6.57 6.57 0 003.906 10.2v10.312a6.57 6.57 0 006.563 6.563H20.78a6.57 6.57 0 006.563-6.563V10.2a6.57 6.57 0 00-6.563-6.563zm-5.156 17.344a5.625 5.625 0 115.625-5.625 5.632 5.632 0 01-5.625 5.625zm6.094-10.313a1.406 1.406 0 110-2.812 1.406 1.406 0 010 2.813z"/></g><defs><clipPath id="clip0_29_1124"><path fill="#fff" transform="translate(.625 .356)" d="M0 0h30v30H0z"/></clipPath></defs></svg>