<svg width="152" height="114" fill="none" xmlns="http://www.w3.org/2000/svg"><g id="Group 72"><g id="Vector 40" stroke="#E6FB04" stroke-width="2" stroke-linecap="round" stroke-linejoin="round"><path d="M41.649 59.385l-2.98-12.857 1.49 1.264c.71 2.81 2.128 8.642 2.128 9.485s-.425 1.757-.638 2.108z"/><path d="M46.755 51.797c-.85-5.059-5.46-6.042-7.66-5.902 8.937.633 7.235 6.956 7.235 9.274 0 1.855-2.412 3.584-3.617 4.216 1.702-.421 4.893-2.53 4.042-7.588z"/></g><path id="Vector 41" d="M42.713 67.816l.851 4.216m.213-4.427c.993-.07 2.978.253 2.978 2.108s-1.276 2.319-1.914 2.319l-1.277-4.427" stroke="#E6FB04" stroke-width="2" stroke-linecap="round" stroke-linejoin="round"/><path id="Vector 42" d="M61.437 58.753c-.142-.843-.34-3.078 0-5.27.34-2.192.71-8.22.85-10.96 1.065 3.232 3.278 10.117 3.618 11.803.34 1.687.426 3.654.426 4.427m-1.064.421h-2.98l-.425-2.74c.426-2.88 1.192-8.979.852-10.328" stroke="#E6FB04" stroke-width="2" stroke-linecap="round" stroke-linejoin="round"/><path id="Vector 35" d="M34.628 27.769L26.543 1l12.766 26.769c.496-3.021 3.191-8.305 10-5.27 0-4.637-1.064-10.96.851-14.754 3.234 6.239 5.32 12.436 5.958 14.754C57.323 17.3 63.437 7.07 78.246 7.745c10.724 0 15.674 8.43 16.809 12.646 3.404-4.496 12.213-10.032 20.213 3.794m1.702.844c4.539-4.638 14.171-15.092 16.384-19.813 0 3.203-.71 5.128-1.064 5.69l-10.213 17.917c5.461 1.053 14.596 5.775 7.447 16.23m.851 1.475c1.702-.281 6-.675 9.574 0-5.276 2.698-9.149 4.215-10.425 4.637 3.9 2.6 9.532 10.665.851 22.131 7.659 3.541 16.809 10.047 20.426 12.858-5.887-1.757-18.979-6.029-24.256-9.064m0 1.476c.993 4.566-.468 13.953-14.256 14.965-9.362 0-13.972-7.307-15.106-10.96l-3.405 15.386-4.043-14.543c-1.63 3.653-6.68 9.063-13.83 1.475m-1.276 1.265c-2.837 5.129-11.873 13.405-25.32 5.48v21.077l-6.17-24.45c-2.27 3.443-8.766 8.642-16.596 1.897-4.596-5.395-1.915-10.96 0-13.068m-2.341 0c-5.532-1.827-14.213-8.304-4.681-19.602-8 1.855-15.674 3.021-18.511 3.372l17.66-9.695c-3.476-2.53-9.703-9.907-6.809-19.18 2.894-9.275 14.54-7.94 20-6.113" stroke="#E6FB04" stroke-width="2" stroke-linecap="round" stroke-linejoin="round"/><g id="Vector 36"><path d="M51.65 51.797C49.947 37.97 36.756 38.87 30.373 41.047c1.56-1.194 6.255-3.16 12.553-1.475 11.915 4.216 11.49 12.858 10.639 17.706-.681 3.878-2.695 5.971-3.617 6.534.922.632 2.723 3.161 2.553 8.22-.213 6.323-9.362 7.166-10.639 7.166-1.276 0-1.49-1.475-1.064-2.107 16.81-3.373 8.298-12.858 7.873-13.28-.34-.337-.426-.562-.426-.632 1.348-1.335 3.915-5.48 3.405-11.382z" fill="#E6FB04"/><path d="M29.521 41.89l9.789 34.78m-8.936-35.621c6.383-2.178 19.574-3.078 21.277 10.75.51 5.901-2.057 10.046-3.405 11.381 0 .07.085.295.426.633.425.421 8.936 9.906-7.873 13.279-.425.632-.212 2.107 1.064 2.107 1.277 0 10.426-.843 10.639-7.166.17-5.059-1.631-7.588-2.553-8.22.922-.563 2.936-2.656 3.617-6.534.85-4.848 1.276-13.49-10.639-17.706-6.298-1.686-10.993.281-12.553 1.476z" stroke="#E6FB04" stroke-width="2" stroke-linecap="round" stroke-linejoin="round"/></g><g id="Vector 37"><path d="M66.756 36.41l9.788 32.46-7.022.843 3.405 1.475 6.383-.843-11.703-34.778-.85.843zm-4.681-.843c1.192 0 3.334-.281 4.256-.422-.34 1.012-5.248 1.265-7.66 1.265.638-.28 2.213-.843 3.404-.843zm-.851 34.778c-1.532-1.18-4.61-.492-5.957 0-.213.351-.426 1.096.425 1.265.851.168 4.752-.07 6.596-.211l.639-5.059 3.404-1.264 2.34 3.794-1.915-4.427c-1.361.844-3.688.633-4.68.422-.142 1.054-.511 3.625-.852 5.48z" fill="#E6FB04"/><path d="M57.82 37.464l-4.043 33.724m22.767-2.318l-9.788-32.46.851-.843L79.31 70.345l-6.383.843-3.405-1.475 7.022-.843zM66.33 35.145c-.922.141-3.064.422-4.256.422-1.191 0-2.766.562-3.404.843 2.412 0 7.32-.253 7.66-1.264zm-11.064 35.2c1.347-.492 4.425-1.18 5.957 0 .34-1.855.71-4.426.851-5.48.993.21 3.32.422 4.681-.422l1.915 4.427-2.34-3.794-3.405 1.264-.638 5.059c-1.844.14-5.745.38-6.596.21-.85-.168-.638-.913-.425-1.264z" stroke="#E6FB04" stroke-width="2" stroke-linecap="round" stroke-linejoin="round"/></g><g id="Vector 38"><path d="M93.99 71.189l-5.319-.633 1.49 1.686 4.894.422c.85-10.188 2.595-30.816 2.766-31.827.17-1.012-.497-2.248-.851-2.74l-2.98 33.092zM82.714 54.748l5.532 14.544-5.106-12.015c-.497 4.216-1.405 12.69-1.064 12.858.34.168.567 1.054.638 1.475H79.31l1.064-1.054c.212-.14.765-.59 1.276-1.264 0-1.518.71-10.328 1.064-14.544zm0-18.338c-.34.17-3.688-.491-5.32-.843.17 0 3.901.563 5.745.843.639.211 2 .76 2.341 1.265.68 0 2.128 3.513 2.766 5.27-.284.772-.979 2.613-1.49 3.794-1.008-.506-3.115-7.097-4.042-10.328z" fill="#E6FB04"/><path d="M95.693 37.675h-6.17l-1.703 10.96M75.905 55.38V35.567m12.766 34.99l5.32.632 2.979-33.092c.354.492 1.02 1.728.85 2.74-.17 1.011-1.914 21.64-2.765 31.827l-4.894-.422-1.49-1.686zm-.425-1.265l-5.532-14.544c-.355 4.216-1.064 13.026-1.064 14.544-.51.674-1.064 1.124-1.276 1.264L79.31 71.61h3.404c-.071-.421-.298-1.307-.638-1.475-.34-.169.567-8.642 1.064-12.858l5.106 12.015zM77.395 35.567c1.63.352 4.979 1.012 5.319.843.927 3.232 3.034 9.823 4.043 10.329.51-1.18 1.205-3.022 1.489-3.794-.638-1.757-2.085-5.27-2.766-5.27-.34-.506-1.702-1.054-2.34-1.264-1.844-.282-5.575-.844-5.745-.844z" stroke="#E6FB04" stroke-width="2" stroke-linecap="round" stroke-linejoin="round"/></g><g id="Vector 39"><path d="M117.396 59.596c.851-1.012 1.064-.422 1.064 0 .425.843-1.489 7.166-2.979 9.274l-.034.047c-1.491 2.111-3.837 5.433-9.328 5.433-4.476 0-6.724-3.588-7.87-6.968a8.795 8.795 0 01-.64-2.306c.162.724.37 1.509.64 2.306 2.726 6.176 11.951 4.484 14.253 2.963 2.554-1.686 3.83-9.485 4.894-10.75z" fill="#E6FB04"/><path d="M108.885 47.16c1.873-1.012 3.759.983 4.468 2.107.213-1.686-1.915-6.534-5.957-2.74-4.043 3.794-3.83 13.069-3.83 14.965 0 1.898.638 6.113 3.192 5.48 2.042-.505 2.695-3.301 2.766-4.636-.71-.211-2.383-.59-3.405-.422 0 1.054 1.915 1.686 2.766 2.108-.681 2.023-3.12 1.826-4.255 1.475-.284-.983-.766-3.71-.426-6.745.426-3.794 2.341-10.328 4.681-11.592z" fill="#E6FB04"/><path d="M118.46 51.797h-4.043l-.638.843c0 .21.426.717 2.128 1.054 1.702.337 3.546-.14 4.255-.422l-.425-6.745c-.922-3.372-4.511-9.78-11.49-8.43-6.979 1.348-9.575 7.728-10 10.749.709-2.88 3.83-8.895 10.638-9.906 6.809-1.012 9.22 8.15 9.575 12.857z" fill="#E6FB04"/><path d="M105.481 60.86c0-.983.128-3.035.638-3.372.639-.422 8.937 1.264 10.852.632m-3.618-6.956v-1.897m0 0c-.709-1.124-2.595-3.12-4.468-2.107-2.34 1.264-4.255 7.798-4.681 11.592-.34 3.036.142 5.762.426 6.745 1.135.352 3.574.548 4.255-1.475-.851-.422-2.766-1.054-2.766-2.108 1.022-.169 2.695.21 3.405.422-.071 1.334-.724 4.13-2.766 4.637-2.554.632-3.192-3.584-3.192-5.48 0-1.898-.213-11.172 3.83-14.966 4.042-3.794 6.17 1.054 5.957 2.74zm5.107 10.328c0-.421-.213-1.011-1.064 0-1.064 1.265-2.34 9.064-4.894 10.75-2.553 1.686-13.617 3.583-14.894-5.27.852 3.795 2.979 9.275 8.511 9.275 5.532 0 7.873-3.373 9.362-5.48 1.49-2.108 3.404-8.431 2.979-9.275zm-4.043-7.798h4.043c-.355-4.707-2.766-13.87-9.575-12.857-6.808 1.011-9.93 7.025-10.638 9.906.425-3.021 3.021-9.4 10-10.75 6.979-1.349 10.568 5.059 11.49 8.431l.425 6.745c-.709.281-2.553.76-4.255.422-1.702-.337-2.128-.843-2.128-1.054l.638-.843z" stroke="#E6FB04" stroke-width="2" stroke-linecap="round" stroke-linejoin="round"/></g></g></svg>